<svg version="1.1" id="Layer_1" xmlns="http://www.w3.org/2000/svg" xmlns:xlink="http://www.w3.org/1999/xlink" x="0px" y="0px"
	width="100px" height="100px" viewBox="-3.637 -8.005 83.496 100" enable-background="new -3.637 -8.005 83.496 100"
	 xml:space="preserve" stroke="rgba(0,0,0,1)" stroke-width="0" fill="rgba(0,0,0,1)" style="cursor:pointer">
<path d="M87.942,42.574c0,27.887-22.035,50.078-49.922,50.078c-27.738,0-50.078-22.19-50.078-50.078
	c0-27.58,22.339-49.771,50.078-49.771C65.907-7.197,87.942,14.994,87.942,42.574z M13.827,55.361
	c-0.62-3.853-0.923-8.167-0.923-12.326c0-3.083,0.155-5.547,0.458-8.477C6.277,33.174,2.118,32.095-1.117,30.71
	c-1.079,3.697-1.698,7.856-1.698,11.864c0,2.002,0,4.004,0.31,5.7C-0.504,50.585,4.579,53.666,13.827,55.361z M22.301,80.171
	c-3.545-4.931-5.857-11.25-7.395-18.646c-6.167-1.385-11.709-3.08-15.409-5.086c2.312,5.703,5.238,10.786,9.707,14.948
	C12.904,75.392,17.528,78.166,22.301,80.171z M1.195,25.314c1.382,1.233,3.694,1.388,12.788,3.852
	c1.692-9.862,4.624-18.025,9.242-24.189c-5.238,2.464-9.862,4.621-14.021,9.09C5.657,17.303,3.042,21.31,1.195,25.314z
	 M19.375,56.439c5.238,0.927,10.32,1.389,15.558,1.544V36.254c-5.547-0.152-11.089-0.461-16.333-1.078
	c0,2.773-0.149,5.085-0.149,7.859C18.451,47.505,18.755,52.28,19.375,56.439z M19.375,29.938c5.083,0.461,10.32,0.771,15.558,0.923
	V2.203c0,0-0.149,0-0.304,0C27.693,4.977,21.842,15.762,19.375,29.938z M34.939,83.251V63.376
	c-4.779-0.155-9.558-0.465-14.176-0.927c0.924,4.008,2.306,7.55,4.159,10.788C27.234,78.782,30.774,83.251,34.939,83.251z
	 M40.791,2.203v28.659c5.393-0.152,10.476-0.462,15.713-0.923C54.502,18.843,50.039,9.136,44.795,4.36
	C43.412,3.437,41.869,2.203,40.791,2.203z M56.354,56.595c0.77-4.159,0.924-8.938,0.924-13.559c0-2.774,0-5.086-0.154-7.705
	c-5.238,0.462-10.631,0.771-16.333,0.923v21.729C46.183,57.828,51.266,57.366,56.354,56.595z M55.121,62.449
	c-4.778,0.462-9.552,0.771-14.33,0.927v19.875C48.805,83.251,53.119,69.383,55.121,62.449z M52.654,4.822
	c4.624,6.009,7.55,14.485,9.094,24.5c8.318-1.541,11.709-2.926,12.942-3.853C70.376,15.917,62.206,8.212,52.654,4.822z
	 M75.924,57.057c-4.011,1.851-9.248,3.391-14.945,4.624c-1.698,7.395-3.854,13.404-7.556,18.49
	c4.779-2.005,9.559-4.776,13.253-8.783C70.989,67.38,73.915,62.449,75.924,57.057z M62.826,43.036c0,4.159-0.31,8.628-0.769,12.481
	c16.023-2.619,16.637-6.316,16.637-12.943c0-3.852-0.613-8.015-1.848-11.712c-2.925,1.233-8.169,3.083-14.33,3.697
	C62.826,37.488,62.826,39.952,62.826,43.036z"  pointer-events='all'/>
</svg>
