<svg version="1.1" id="Layer_1" xmlns="http://www.w3.org/2000/svg" xmlns:xlink="http://www.w3.org/1999/xlink" x="0px" y="0px"
	 width="{{width}}" height="{{height}}" viewBox="-3.637 -8.005 83.496 100" enable-background="new -3.637 -8.005 83.496 100"
 	 xml:space="preserve" stroke="rgba(0,0,0,1)" stroke-width="0" fill="rgba(0,0,0,1)" style="cursor:pointer">
<path d="M14.13,86.104l-25.307,6.175l-0.455-0.448l6.63-25.313L54.35,7.465c1.055-0.3,3.618-1.054,7.229-0.3l-62.964,62.97
	l-1.806,6.627l7.23,7.232l6.775-1.809l3.018-2.863l0.297-6.778l-4.818-4.821L67.01,10.028c0.903,0.751,0.903,0.751,1.806,1.806
	c8.588,8.438,4.667,14.914,4.667,14.914L14.13,86.104z M83.729,16.506l-5.575,5.572c0,0,4.218-6.478-4.521-14.914
	c-7.685-7.681-14.914-4.37-14.914-4.37l5.878-5.875c5.272-5.421,14.46-5.421,19.58-0.3C90.202,2.196,89.45,10.78,83.729,16.506z"/>
</svg>
