<?xml version="1.0" standalone="no"?>
<!DOCTYPE svg PUBLIC "-//W3C//DTD SVG 1.1//EN" "http://www.w3.org/Graphics/SVG/1.1/DTD/svg11.dtd" >
<svg xmlns="http://www.w3.org/2000/svg">
<metadata>
This is a custom SVG webfont generated by Font Squirrel.
</metadata>
<defs>
<font id="FontomasCustomRegular" horiz-adv-x="1024" >
<font-face units-per-em="2048" ascent="1536" descent="-512" />
<missing-glyph horiz-adv-x="500" />
<glyph unicode="a" d="M207 647l737 664v-398q145 0 275.5 -33.5t228.5 -91t183 -132t145.5 -157.5t108.5 -165t79 -157t50.5 -133t27.5 -91l8 -35q-53 96 -116.5 170t-128 125t-145.5 88t-155.5 57.5t-173 32.5t-184.5 15.5t-203 3.5v-447z" />
<glyph unicode="b" d="M207 -82q4 20 14 56t49 139.5t89.5 198t141.5 209t199.5 197.5t268 139t344.5 56v398l737 -660l-737 -688v447q-117 0 -202 -3.5t-184.5 -15.5t-173 -32.5t-154.5 -57.5t-145.5 -88t-128 -125t-118.5 -170z" />
<glyph unicode="c" d="M211 894q0 187 143 318q129 117 311.5 117t307.5 -117l119 -106l114 106q129 117 311.5 117t311.5 -117q145 -131 145 -318t-145 -321l-737 -675l-738 675q-143 134 -143 321z" />
<glyph unicode="d" d="M207 614.5q0 239.5 117.5 442.5t320.5 320.5t442 117.5q238 0 441 -117.5t321.5 -320.5t118.5 -442.5t-118.5 -442.5t-321.5 -320.5t-441 -117.5q-240 0 -442.5 117.5t-320 320.5t-117.5 442.5zM371 541q29 -252 209 -433.5t434 -205.5v393h143v-393q254 25 435.5 206 t207.5 433h-397v143h397q-27 256 -208 437.5t-435 205.5v-397h-143v397q-254 -25 -434.5 -206t-208.5 -437h397v-143h-397z" />
<glyph unicode="e" d="M207 827h655l246 689l242 -689h659l-536 -405l188 -709l-553 426l-557 -426l188 709z" />
<glyph unicode="f" d="M207 205v614q0 84 61.5 144.5t143.5 60.5h389v-635h717h20v-184q0 -86 -59.5 -145.5t-145.5 -59.5h-512l-307 -307v307h-102q-84 0 -144.5 60.5t-60.5 144.5zM924 512v819q0 84 61.5 144.5t142.5 60.5h922q86 0 145.5 -60.5t59.5 -144.5v-614q0 -86 -59.5 -145.5 t-145.5 -59.5h-102v-307l-308 307h-716z" />
<glyph unicode="g" d="M207 410v716q0 84 60.5 144.5t144.5 60.5h1228q84 0 144.5 -60.5t60.5 -144.5v-716q0 -84 -60.5 -144.5t-144.5 -60.5h-409v-307l-410 307h-409q-86 0 -145.5 59.5t-59.5 145.5z" />
<glyph unicode="h" d="M207 180q0 156 115 271l307 303q141 141 292 160q23 3 44 3q123 0 217 -94q31 -31 30.5 -71.5t-30.5 -71.5q-27 -31 -70 -31t-74 31q-36 36 -82 36q-78 0 -184 -106l-307 -303q-53 -53 -53 -127q0 -72 53 -131q55 -51 131 -51t131 51l82 86q30 28 69 28h3q41 -1 71 -32 q31 -27 31 -70t-31 -73l-82 -82q-117 -111 -274.5 -111t-273.5 111q-115 114 -115 274zM844 465q0 41 30 72q29 31 71 30.5t73 -30.5q18 -16 32.5 -25.5t45.5 -15.5q7 -1 13 -2q26 0 60 18q43 23 95 74l327 323q53 53 54 127q0 72 -54 131q-35 33 -73 50q-28 12 -61 11 q-12 0 -24 -1q-46 -6 -83 -43l-103 -103q-30 -28 -69 -27h-2q-41 1 -72 31q-31 29 -31 71t31 73l102 102q105 103 244 103h16q150 -6 269 -123q111 -111 110 -275q0 -160 -110 -270l-328 -324q-152 -152 -307 -151q-129 0 -226 102q-30 31 -30 72z" />
<glyph unicode="i" d="M207 1221l188 65q74 53 137.5 91t113.5 62.5t97.5 33t78.5 11.5q6 1 12 0q26 0 56 -10q36 -13 57.5 -24.5t51 -41.5t45 -47.5t46.5 -53.5q31 -41 48 -60.5t54 -56.5t64.5 -54.5t73.5 -41t90 -30.5t108 -11q16 -1 32 -1q48 0 99 9q68 12 155 35.5t183 62.5q29 12 45 -2 q8 -7 8 -17t-8 -22q-154 -223 -273.5 -364.5t-201.5 -199.5t-144 -71q-20 -4 -38 -4q-39 0 -71 18q-48 26 -92 63.5t-99.5 67t-121.5 35.5q-6 1 -13 0q-62 0 -153 -42q-101 -47 -231 -154l184 -725h-208z" />
<glyph unicode="j" d="M207 344q74 43 119 117t45 153q0 154 -164 250q23 84 69 172q35 -9 69 -9q111 0 210 99q82 80 82 190q0 42 -12 89q86 47 168 70q47 -76 119.5 -120t154.5 -44q80 0 151.5 45t118.5 119q82 -23 168 -70q-11 -45 -11 -87q0 -111 81 -192q99 -99 210 -99q34 0 68 9 q43 -80 74 -172q-168 -94 -168 -249.5t168 -249.5q-31 -92 -74 -172q-35 9 -68 9q-111 0 -210 -100q-81 -85 -81 -194q0 -40 11 -84q-86 -45 -168 -70q-47 76 -118.5 120t-151.5 44q-82 0 -154.5 -44t-119.5 -120q-82 25 -168 70q12 45 12 86q0 108 -82 192q-82 82 -191 82 q-42 0 -88 -12q-46 88 -69 172zM690 614q0 -156 110.5 -264t266.5 -108t264.5 108.5t108.5 263.5q0 154 -109.5 263.5t-263.5 109.5q-156 0 -266.5 -109.5t-110.5 -263.5z" />
<glyph unicode="k" d="M211 541q12 160 106.5 325.5t242 293.5t306.5 175q200 56 390 56q376 0 708 -220q92 -61 151.5 -135.5t79.5 -141.5q20 -63 20 -118q0 -61 -22 -100q-20 -37 -49 -44q-9 -2 -21 -2q-25 0 -63 10q-55 15 -105 30q-21 6 -46 6q-34 0 -74 -11q-70 -19 -133 -87 q-39 -43 -46 -92q-2 -13 -2 -25q0 -34 14 -65q19 -42 45 -78.5t47.5 -72.5t19.5 -57q-2 -27 -28 -67.5t-87 -90.5t-146 -93t-221.5 -72t-296.5 -29q-190 0 -345.5 56.5t-255 152.5t-149.5 224q-42 106 -42 224q0 24 2 48zM1157 369q0 -61 46 -106.5t110.5 -45.5t109.5 45 t45 107q0 66 -45 110.5t-109.5 44.5t-110.5 -44.5t-46 -110.5z" />
<glyph unicode="l" d="M207 1012q207 207 472 314.5t533.5 107.5t533.5 -107.5t468 -314.5l-143 -144q-233 236 -547 320q-157 42 -314 42l-313 -42q-313 -84 -547 -320zM494 725q197 197 457 265q131 34 261 35l262 -35q261 -69 453 -265l-143 -147q-156 158 -364 213q-104 28 -208 27.5 t-208 -27.5q-209 -55 -367 -213zM780 434q178 182 430 182t430 -182l-143 -143q-117 121 -285 121t-288 -121zM1010 0q0 86 59 145.5t141 59.5q86 0 145.5 -59.5t59.5 -145.5t-59.5 -145.5t-145.5 -59.5q-82 0 -141 59.5t-59 145.5z" />
<glyph unicode="m" d="M207 573v283q0 18 11 29.5t30 11.5h61q16 0 28.5 -11.5t12.5 -29.5v-283q0 -45 14.5 -91t50.5 -97t91 -90t148.5 -64.5t207.5 -25.5q115 0 207 25.5t147.5 65.5t92.5 90t51 97t14 90v283q0 18 11.5 29.5t29.5 11.5h62q16 0 28.5 -11.5t12.5 -29.5v-283q0 -88 -33 -171 t-98.5 -154.5t-174 -119.5t-247.5 -62v-271h266q16 0 28.5 -11t12.5 -30v-123q0 -14 -12.5 -27.5t-28.5 -13.5h-737q-16 0 -28.5 12.5t-12.5 28.5v123q0 18 11 29.5t30 11.5h266v271q-139 14 -248 62t-173.5 119.5t-98 154.5t-33.5 171zM555 573v324h614v-324 q0 -61 -72.5 -112t-234.5 -51t-234.5 51t-72.5 112zM555 1040v435q0 61 72.5 112t234.5 51t234.5 -51t72.5 -112v-435h-614z" />
<glyph unicode="n" d="M211 662q0 34 172 246q180 222 368 429q180 199 196 199h1q8 -8 -154 -381q-157 -359 -157 -384v-1q4 -8 99 -47t192.5 -84t101.5 -70v-1q0 -32 -177 -247q-181 -220 -367 -427q-180 -201 -193 -201q-9 6 71 190.5t162 373.5q78 180 78 200v2q-4 10 -193 91 q-200 85 -200 112z" />
<glyph unicode="o" d="M211 602v11q0 187 70 357q72 175 195.5 302t296.5 204.5t365 79.5q5 0 10 1q186 0 357 -70q176 -72 304 -197t206 -298t80 -365v-11q0 -185 -71 -355q-73 -175 -196.5 -303t-296.5 -205t-365 -80h-15q-183 0 -352 69q-176 72 -304 196.5t-205 299t-79 364.5zM780 823h226 v13q0 55 36 110q31 49 107 49q82 0 111 -41t28 -94q0 -39 -33 -82q-18 -27 -36 -37l-14 -9q-13 -9 -31.5 -22.5t-40 -29.5t-43 -35.5t-35.5 -38.5q-14 -16 -22.5 -43.5t-9.5 -43t-5 -68.5v-21h217v8q0 20 8 62q14 35 62 69l57 41q94 78 111 99q53 72 53 163q0 158 -111 238 q-111 78 -274 78q-123 0 -213 -58q-135 -86 -148 -294v-13zM997 180q-2 -57 36 -96t100 -43h4q59 0 98 37t41 94q0 61 -37 101t-102 42h-4q-57 0 -96.5 -38t-39.5 -97z" />
<glyph unicode="p" d="M31 -117q121 0 207 -86t86 -207h-293v293zM31 176v293q238 0 440.5 -118t320 -320.5t117.5 -440.5h-293q0 242 -171.5 414t-413.5 172zM31 760v293q297 0 568 -116t467 -311.5t311.5 -467t115.5 -568.5h-293q0 238 -92 455t-249 373.5t-373.5 249t-454.5 92.5zM31 1346 v292q416 0 794.5 -162.5t653 -437t437.5 -653.5t163 -795h-293q0 238 -63.5 465.5t-176 420t-275.5 355t-354.5 275.5t-419.5 176.5t-466 63.5z" />
<glyph unicode="q" d="M0 616.5q0 278.5 137 514t372.5 372.5t514.5 137t514.5 -137t372.5 -372.5t137 -514t-137 -514t-372.5 -373t-514.5 -137.5t-514.5 137.5t-372.5 373t-137 514zM422 616q145 -145 264 -273t166 -183l45 -54q16 27 45 73t116 175t171 243t194.5 245t202.5 213 q-37 72 -74 71q-20 -12 -65 -44.5t-232.5 -199.5t-431.5 -411l-291 254z" />
<glyph unicode="r" d="M0 614l219 220l586 -512q307 307 571 555.5t421 384t269.5 227.5t157.5 121l43 28q8 0 22.5 -4t53.5 -39.5t72 -101.5q-512 -455 -1229 -1536l-236 -367q-295 369 -950 1024z" />
<glyph unicode="s" d="M0 -410v2048h2785v-2048h-2785zM246 -164h2294v1557h-2294v-1557zM410 8v4q37 74 276.5 573.5t294.5 612.5q2 4 7 5h2q4 0 5 -3l637 -790l312 249h14l2 -4q80 -102 208 -317t214 -324q3 -1 3 -4q0 -10 -9 -10h-1956h-2q-8 0 -8 8zM1966 983q0 68 48 116t116 48t116 -48 t48 -116t-48 -116t-116 -48t-116 48t-48 116z" />
<glyph unicode="t" d="M31 102v256l1024 -256l1024 256v-256l-1024 -256zM31 614v256l1024 -256l1024 256v-256l-1024 -256zM31 1126v256l1024 256l1024 -256v-256l-1024 -256z" />
<glyph unicode="u" d="M211 819q-1 9 -1 18q0 13 2 23q3 18 10 31.5t28.5 22t54.5 8.5h1860q63 0 81 -26q14 -21 14 -58q0 -9 -1 -19l-86 -921q-4 -51 -24.5 -77t-86.5 -26h-1654q-63 0 -85 25.5t-26 77.5zM383 1065l29 266q6 43 38.5 73t75.5 30h336q41 0 93.5 -21.5t82.5 -52.5l58 -57 q31 -31 83 -52.5t93 -21.5h700q43 0 79 -23.5t44 -58.5l21 -82h-1733z" />
<glyph unicode="v" d="M215 971q-6 15 -6 29q0 16 7 33q13 32 44 40l1393 508q14 5 27 6q17 0 33 -9q30 -15 38 -46l213 -578h-205l-254 308l-442 -308h-365q-109 0 -185.5 -77.5t-76.5 -188.5v-328zM621 -279v967q0 35 22.5 58.5t54.5 23.5h1479q33 0 55.5 -23.5t22.5 -58.5v-967 q0 -33 -22.5 -57t-55.5 -24h-1479q-33 0 -55 24t-22 57zM838 25v-177h1228v328l-147 332l-344 -123l-266 -274l-283 352z" />
<glyph unicode="w" d="M207 614.5q0 233.5 115.5 432t313.5 313.5t431 115t432 -115t313.5 -313.5t114.5 -432t-114.5 -431t-313.5 -313.5t-432 -116t-431 116t-313.5 313.5t-115.5 431zM575 299l177 -176l315 315l311 -315l176 176l-311 315l311 312l-176 180l-311 -315l-315 315l-177 -180 l312 -312z" />
<glyph unicode="&#xaa;" d="M207 647l737 664v-398q145 0 275.5 -33.5t228.5 -91t183 -132t145.5 -157.5t108.5 -165t79 -157t50.5 -133t27.5 -91l8 -35q-53 96 -116.5 170t-128 125t-145.5 88t-155.5 57.5t-173 32.5t-184.5 15.5t-203 3.5v-447z" />
<glyph unicode="&#xba;" d="M211 602v11q0 187 70 357q72 175 195.5 302t296.5 204.5t365 79.5q5 0 10 1q186 0 357 -70q176 -72 304 -197t206 -298t80 -365v-11q0 -185 -71 -355q-73 -175 -196.5 -303t-296.5 -205t-365 -80h-15q-183 0 -352 69q-176 72 -304 196.5t-205 299t-79 364.5zM780 823h226 v13q0 55 36 110q31 49 107 49q82 0 111 -41t28 -94q0 -39 -33 -82q-18 -27 -36 -37l-14 -9q-13 -9 -31.5 -22.5t-40 -29.5t-43 -35.5t-35.5 -38.5q-14 -16 -22.5 -43.5t-9.5 -43t-5 -68.5v-21h217v8q0 20 8 62q14 35 62 69l57 41q94 78 111 99q53 72 53 163q0 158 -111 238 q-111 78 -274 78q-123 0 -213 -58q-135 -86 -148 -294v-13zM997 180q-2 -57 36 -96t100 -43h4q59 0 98 37t41 94q0 61 -37 101t-102 42h-4q-57 0 -96.5 -38t-39.5 -97z" />
<glyph unicode="&#x153;" horiz-adv-x="2048" d="M1231 827h655l246 689l242 -689h659l-536 -405l188 -709l-553 426l-557 -426l188 709zM211 602v11q0 187 70 357q72 175 195.5 302t296.5 204.5t365 79.5q5 0 10 1q186 0 357 -70q176 -72 304 -197t206 -298t80 -365v-11q0 -185 -71 -355q-73 -175 -196.5 -303 t-296.5 -205t-365 -80h-15q-183 0 -352 69q-176 72 -304 196.5t-205 299t-79 364.5zM780 823h226v13q0 55 36 110q31 49 107 49q82 0 111 -41t28 -94q0 -39 -33 -82q-18 -27 -36 -37l-14 -9q-13 -9 -31.5 -22.5t-40 -29.5t-43 -35.5t-35.5 -38.5q-14 -16 -22.5 -43.5 t-9.5 -43t-5 -68.5v-21h217v8q0 20 8 62q14 35 62 69l57 41q94 78 111 99q53 72 53 163q0 158 -111 238q-111 78 -274 78q-123 0 -213 -58q-135 -86 -148 -294v-13zM997 180q-2 -57 36 -96t100 -43h4q59 0 98 37t41 94q0 61 -37 101t-102 42h-4q-57 0 -96.5 -38t-39.5 -97z " />
<glyph unicode="&#x2000;" horiz-adv-x="819" />
<glyph unicode="&#x2001;" horiz-adv-x="1640" />
<glyph unicode="&#x2002;" horiz-adv-x="819" />
<glyph unicode="&#x2003;" horiz-adv-x="1640" />
<glyph unicode="&#x2004;" horiz-adv-x="546" />
<glyph unicode="&#x2005;" horiz-adv-x="409" />
<glyph unicode="&#x2006;" horiz-adv-x="272" />
<glyph unicode="&#x2007;" horiz-adv-x="272" />
<glyph unicode="&#x2008;" horiz-adv-x="204" />
<glyph unicode="&#x2009;" horiz-adv-x="327" />
<glyph unicode="&#x200a;" horiz-adv-x="90" />
<glyph unicode="&#x2013;" d="M205 512v205h614v-205h-614z" />
<glyph unicode="&#x2014;" horiz-adv-x="2048" d="M205 512v205h1638v-205h-1638z" />
<glyph unicode="&#x202f;" horiz-adv-x="327" />
<glyph unicode="&#x205f;" horiz-adv-x="409" />
<glyph unicode="&#xe000;" horiz-adv-x="500" d="M0 0v0v0v0v0z" />
<glyph unicode="&#xfb01;" horiz-adv-x="2048" d="M1231 1221l188 65q74 53 137.5 91t113.5 62.5t97.5 33t78.5 11.5q6 1 12 0q26 0 56 -10q36 -13 57.5 -24.5t51 -41.5t45 -47.5t46.5 -53.5q31 -41 48 -60.5t54 -56.5t64.5 -54.5t73.5 -41t90 -30.5t108 -11q16 -1 32 -1q48 0 99 9q68 12 155 35.5t183 62.5q29 12 45 -2 q8 -7 8 -17t-8 -22q-154 -223 -273.5 -364.5t-201.5 -199.5t-144 -71q-20 -4 -38 -4q-39 0 -71 18q-48 26 -92 63.5t-99.5 67t-121.5 35.5q-6 1 -13 0q-62 0 -153 -42q-101 -47 -231 -154l184 -725h-208zM207 205v614q0 84 61.5 144.5t143.5 60.5h389v-635h717h20v-184 q0 -86 -59.5 -145.5t-145.5 -59.5h-512l-307 -307v307h-102q-84 0 -144.5 60.5t-60.5 144.5zM924 512v819q0 84 61.5 144.5t142.5 60.5h922q86 0 145.5 -60.5t59.5 -144.5v-614q0 -86 -59.5 -145.5t-145.5 -59.5h-102v-307l-308 307h-716z" />
<glyph unicode="&#xfb02;" horiz-adv-x="2048" d="M1231 1012q207 207 472 314.5t533.5 107.5t533.5 -107.5t468 -314.5l-143 -144q-233 236 -547 320q-157 42 -314 42l-313 -42q-313 -84 -547 -320zM1518 725q197 197 457 265q131 34 261 35l262 -35q261 -69 453 -265l-143 -147q-156 158 -364 213q-104 28 -208 27.5 t-208 -27.5q-209 -55 -367 -213zM1804 434q178 182 430 182t430 -182l-143 -143q-117 121 -285 121t-288 -121zM2034 0q0 86 59 145.5t141 59.5q86 0 145.5 -59.5t59.5 -145.5t-59.5 -145.5t-145.5 -59.5q-82 0 -141 59.5t-59 145.5zM207 205v614q0 84 61.5 144.5 t143.5 60.5h389v-635h717h20v-184q0 -86 -59.5 -145.5t-145.5 -59.5h-512l-307 -307v307h-102q-84 0 -144.5 60.5t-60.5 144.5zM924 512v819q0 84 61.5 144.5t142.5 60.5h922q86 0 145.5 -60.5t59.5 -144.5v-614q0 -86 -59.5 -145.5t-145.5 -59.5h-102v-307l-308 307h-716z " />
<glyph unicode="&#xfb03;" horiz-adv-x="3072" d="M2255 1221l188 65q74 53 137.5 91t113.5 62.5t97.5 33t78.5 11.5q6 1 12 0q26 0 56 -10q36 -13 57.5 -24.5t51 -41.5t45 -47.5t46.5 -53.5q31 -41 48 -60.5t54 -56.5t64.5 -54.5t73.5 -41t90 -30.5t108 -11q16 -1 32 -1q48 0 99 9q68 12 155 35.5t183 62.5q29 12 45 -2 q8 -7 8 -17t-8 -22q-154 -223 -273.5 -364.5t-201.5 -199.5t-144 -71q-20 -4 -38 -4q-39 0 -71 18q-48 26 -92 63.5t-99.5 67t-121.5 35.5q-6 1 -13 0q-62 0 -153 -42q-101 -47 -231 -154l184 -725h-208zM1231 205v614q0 84 61.5 144.5t143.5 60.5h389v-635h717h20v-184 q0 -86 -59.5 -145.5t-145.5 -59.5h-512l-307 -307v307h-102q-84 0 -144.5 60.5t-60.5 144.5zM1948 512v819q0 84 61.5 144.5t142.5 60.5h922q86 0 145.5 -60.5t59.5 -144.5v-614q0 -86 -59.5 -145.5t-145.5 -59.5h-102v-307l-308 307h-716zM207 205v614q0 84 61.5 144.5 t143.5 60.5h389v-635h717h20v-184q0 -86 -59.5 -145.5t-145.5 -59.5h-512l-307 -307v307h-102q-84 0 -144.5 60.5t-60.5 144.5zM924 512v819q0 84 61.5 144.5t142.5 60.5h922q86 0 145.5 -60.5t59.5 -144.5v-614q0 -86 -59.5 -145.5t-145.5 -59.5h-102v-307l-308 307h-716z " />
<glyph unicode="&#xfb04;" horiz-adv-x="3072" d="M2255 1012q207 207 472 314.5t533.5 107.5t533.5 -107.5t468 -314.5l-143 -144q-233 236 -547 320q-157 42 -314 42l-313 -42q-313 -84 -547 -320zM2542 725q197 197 457 265q131 34 261 35l262 -35q261 -69 453 -265l-143 -147q-156 158 -364 213q-104 28 -208 27.5 t-208 -27.5q-209 -55 -367 -213zM2828 434q178 182 430 182t430 -182l-143 -143q-117 121 -285 121t-288 -121zM3058 0q0 86 59 145.5t141 59.5q86 0 145.5 -59.5t59.5 -145.5t-59.5 -145.5t-145.5 -59.5q-82 0 -141 59.5t-59 145.5zM1231 205v614q0 84 61.5 144.5 t143.5 60.5h389v-635h717h20v-184q0 -86 -59.5 -145.5t-145.5 -59.5h-512l-307 -307v307h-102q-84 0 -144.5 60.5t-60.5 144.5zM1948 512v819q0 84 61.5 144.5t142.5 60.5h922q86 0 145.5 -60.5t59.5 -144.5v-614q0 -86 -59.5 -145.5t-145.5 -59.5h-102v-307l-308 307h-716z M207 205v614q0 84 61.5 144.5t143.5 60.5h389v-635h717h20v-184q0 -86 -59.5 -145.5t-145.5 -59.5h-512l-307 -307v307h-102q-84 0 -144.5 60.5t-60.5 144.5zM924 512v819q0 84 61.5 144.5t142.5 60.5h922q86 0 145.5 -60.5t59.5 -144.5v-614q0 -86 -59.5 -145.5 t-145.5 -59.5h-102v-307l-308 307h-716z" />
</font>
</defs>
</svg>
